<?xml version="1.0" standalone="no"?>
<!DOCTYPE svg PUBLIC "-//W3C//DTD SVG 20010904//EN" "http://www.w3.org/TR/2001/REC-SVG-20010904/DTD/svg10.dtd">
<svg xmlns="http://www.w3.org/2000/svg" version="1.0" width="1024.000000pt" height="1024.000000pt" viewBox="0 0 1024.000000 1024.000000" preserveAspectRatio="xMidYMid meet">
<metadata>
Created by potrace 1.16, written by Peter Selinger 2001-2019
<meta name="Producer" content="Online-Convert"/></metadata>
<g transform="translate(0.000000,1024.000000) scale(0.100000,-0.100000)" fill="#000000" stroke="none">
<path d="M1294 6772 c-67 -23 -128 -69 -175 -133 -74 -98 -70 12 -67 -1625 l3 -1469 27 -52 c54 -101 133 -167 238 -197 50 -15 408 -16 3820 -14 l3765 3 60 24 c72 29 159 112 196 186 l24 50 3 1477 2 1477 -21 56 c-27 74 -112 165 -187 202 l-57 28 -3790 2 c-3594 2 -3793 1 -3841 -15z m6105 -694 c-21 -60 -297 -915 -385 -1195 l-58 -183 -89 0 c-67 0 -88 3 -84 13 2 6 32 100 67 207 67 210 378 1177 385 1198 3 8 31 12 94 12 l89 0 -19 -52z m-744 -365 c-6 -43 -8 -44 -183 -164 -97 -66 -184 -125 -192 -130 -19 -12 -19 -13 205 -163 97 -66 179 -125 181 -131 3 -6 4 -51 2 -99 l-3 -87 -297 202 -298 203 0 65 1 66 292 197 292 198 3 -58 c2 -31 1 -76 -3 -99z m908 129 c-1 -5 4 -9 11 -8 7 0 135 -80 284 -179 l271 -180 0 -61 c1 -46 -3 -65 -16 -76 -20 -17 -535 -363 -564 -379 -18 -9 -19 -5 -19 85 l0 94 200 133 c110 73 200 135 200 139 0 4 -10 12 -22 18 -13 5 -99 64 -192 129 l-168 118 -2 93 c-1 58 3 91 9 88 6 -2 9 -8 8 -14z m-4123 -1742 l0 -370 -55 0 -55 0 0 47 0 47 -35 -41 c-98 -115 -295 -55 -350 106 -20 58 -19 155 2 216 20 61 87 130 139 144 83 23 186 0 216 -48 7 -12 15 -21 18 -21 3 0 4 65 2 145 l-3 145 60 0 61 0 0 -370z m1940 0 l0 -370 -60 0 -60 0 0 370 0 370 60 0 60 0 0 -370z m1270 350 c43 -43 11 -120 -50 -120 -38 0 -70 32 -70 70 0 38 32 70 70 70 17 0 39 -9 50 -20z m-358 -137 l3 -66 73 2 72 2 0 -50 0 -51 -75 0 -75 0 0 -133 c0 -167 7 -181 85 -175 l53 4 6 -50 c3 -27 3 -52 1 -54 -11 -11 -104 -13 -142 -3 -60 16 -98 52 -112 105 -6 25 -11 104 -11 175 l0 131 -50 0 -50 0 0 50 0 50 56 0 56 0 -4 65 -3 65 57 0 57 0 3 -67z m-4161 -64 c46 -16 90 -50 112 -88 l18 -31 -47 -20 -47 -21 -28 31 c-87 94 -216 44 -235 -91 -17 -123 73 -230 172 -205 27 7 77 51 85 74 3 10 17 8 56 -9 52 -21 52 -22 39 -48 -57 -108 -206 -148 -328 -88 -70 35 -114 85 -134 156 -43 144 24 291 152 336 48 17 139 19 185 4z m569 -10 c93 -42 149 -122 158 -225 11 -145 -78 -258 -225 -286 -48 -9 -69 -8 -114 5 -68 20 -143 72 -135 93 3 8 1 12 -4 9 -5 -3 -19 14 -32 37 -32 61 -32 185 -1 244 27 51 100 117 145 131 57 19 158 15 208 -8z m1191 10 c81 -25 140 -99 159 -201 18 -92 26 -88 -191 -88 l-189 0 0 -22 c0 -13 9 -37 20 -55 47 -78 169 -92 234 -27 l26 27 45 -17 c25 -10 45 -24 45 -31 0 -20 -74 -81 -116 -96 -22 -7 -69 -13 -105 -13 -154 0 -267 112 -269 264 0 74 14 121 53 172 64 83 181 119 288 87z m544 -8 c38 -17 95 -72 95 -90 0 -5 -20 -16 -45 -26 l-45 -17 -37 32 c-32 29 -41 32 -84 28 -56 -6 -79 -21 -79 -54 0 -31 28 -47 125 -74 130 -35 175 -75 175 -155 0 -40 -26 -105 -42 -105 -5 0 -6 6 -2 13 4 7 3 9 -2 4 -5 -5 -9 -14 -9 -20 0 -7 -17 -20 -39 -31 -52 -25 -156 -27 -218 -3 -42 16 -108 75 -108 96 0 5 20 16 45 26 l45 17 29 -31 c26 -28 35 -31 89 -31 78 0 112 23 97 66 -9 26 -22 33 -115 64 -58 20 -115 42 -128 50 -56 37 -68 146 -21 197 57 62 189 83 274 44z m571 -9 c56 -29 119 -102 134 -157 16 -55 9 -159 -13 -202 -28 -53 -68 -93 -121 -120 -108 -56 -263 -25 -336 67 -113 143 -58 362 108 425 54 21 176 14 228 -13z m2149 1 c83 -43 134 -120 142 -214 17 -187 -140 -327 -323 -289 -250 52 -290 396 -59 507 42 20 61 23 125 20 50 -2 88 -11 115 -24z m635 4 c76 -40 84 -68 88 -304 l4 -203 -61 0 -61 0 0 165 c0 121 -4 175 -14 200 -30 72 -130 85 -190 26 l-31 -31 -3 -180 -3 -180 -60 0 -59 0 0 260 0 260 54 0 54 0 7 -40 7 -39 33 32 c63 60 160 74 235 34z m475 12 c38 -11 115 -75 115 -97 0 -6 -21 -17 -46 -26 l-47 -16 -35 31 c-31 28 -41 31 -83 27 -56 -6 -79 -21 -79 -53 0 -32 17 -42 116 -71 49 -14 101 -32 117 -40 63 -33 86 -127 47 -192 -71 -116 -316 -117 -384 -1 -9 15 -16 29 -16 32 0 3 20 13 45 22 l45 18 29 -32 c26 -28 35 -31 90 -31 48 0 65 4 81 20 45 45 20 72 -108 114 -141 47 -167 72 -167 156 0 48 4 63 25 86 54 58 158 80 255 53z m-2633 -183 c3 -178 4 -185 27 -210 46 -49 127 -42 176 15 25 30 25 33 25 205 l0 174 60 0 60 0 0 -260 0 -260 -55 0 -55 0 0 40 c0 47 -5 49 -32 15 -38 -49 -117 -72 -189 -56 -57 13 -89 38 -116 91 -22 41 -23 57 -23 237 l0 193 59 0 60 0 3 -184z m1028 -76 l0 -260 -60 0 -60 0 0 260 0 260 60 0 60 0 0 -260z"/>
<path d="M3119 4137 c-44 -29 -69 -80 -69 -140 0 -61 19 -106 59 -140 26 -22 43 -27 85 -27 90 0 136 56 136 165 0 107 -46 165 -130 165 -32 0 -58 -7 -81 -23z"/>
<path d="M2512 4140 c-48 -30 -76 -98 -69 -169 10 -90 66 -146 147 -146 52 0 87 19 124 69 28 36 29 145 3 194 -37 69 -136 94 -205 52z"/>
<path d="M3727 4149 c-29 -22 -57 -68 -57 -94 0 -13 19 -15 130 -15 145 0 154 4 125 60 -35 67 -139 93 -198 49z"/>
<path d="M4802 4140 c-48 -30 -76 -98 -69 -169 10 -90 64 -144 146 -145 83 -1 141 57 149 147 9 108 -53 187 -148 187 -28 0 -58 -8 -78 -20z"/>
<path d="M6958 4145 c-45 -25 -73 -82 -73 -150 0 -104 57 -170 145 -170 81 0 137 56 147 146 7 71 -21 139 -69 169 -39 24 -110 26 -150 5z"/>
</g>
</svg>
